<?xml version="1.0" encoding="iso-8859-1"?>
<!-- Generator: Adobe Illustrator 19.0.0, SVG Export Plug-In . SVG Version: 6.00 Build 0)  -->
<svg version="1.1" id="Capa_1" xmlns="http://www.w3.org/2000/svg" xmlns:xlink="http://www.w3.org/1999/xlink" x="0px" y="0px"
	 viewBox="0 0 512.001 512.001" style="enable-background:new 0 0 512.001 512.001;" xml:space="preserve">
<g>
	<g>
		<path d="M507.776,246.966l-43.369-44.786l17.36-61.931c1.09-3.888,0.566-8.052-1.453-11.549c-2.019-3.497-5.362-6.032-9.274-7.033
			l-62.045-15.862L393.132,43.76c-1-3.913-3.535-7.256-7.032-9.275s-7.66-2.543-11.549-1.453l-61.663,17.286l-44.76-45.802
			C265.306,1.628,261.438,0,257.4,0c-4.038,0-7.905,1.628-10.728,4.516l-44.76,45.802l-61.664-17.286
			c-3.889-1.089-8.053-0.566-11.549,1.453c-3.497,2.019-6.032,5.363-7.032,9.275l-15.862,62.045L43.76,121.667
			c-3.912,1-7.256,3.536-9.274,7.033c-2.02,3.497-2.543,7.661-1.453,11.549l17.285,61.664L4.517,246.672
			C1.628,249.494,0,253.362,0,257.4c0,4.038,1.628,7.906,4.516,10.728l45.802,44.76l-17.285,61.664
			c-1.09,3.888-0.566,8.052,1.453,11.549c2.019,3.497,5.362,6.032,9.275,7.033l62.045,15.862l15.862,62.045
			c1,3.912,3.535,7.256,7.032,9.275c3.496,2.018,7.659,2.542,11.549,1.453l61.931-17.36l44.786,43.368
			c2.908,2.816,6.671,4.224,10.435,4.224c3.764,0,7.526-1.408,10.435-4.224l44.785-43.368l61.931,17.36
			c3.89,1.09,8.052,0.566,11.549-1.453c3.497-2.019,6.032-5.362,7.032-9.275l15.863-62.045l62.045-15.862
			c3.912-1,7.256-3.536,9.274-7.033c2.02-3.497,2.543-7.661,1.453-11.549l-17.36-61.931l43.368-44.786
			C513.409,262.019,513.409,252.782,507.776,246.966z M436.863,297.94c-3.711,3.832-5.107,9.347-3.668,14.483l15.543,55.446
			l-55.789,14.263c-5.312,1.358-9.459,5.506-10.816,10.817l-14.264,55.789l-55.446-15.542c-5.135-1.44-10.651-0.043-14.483,3.667
			L257.4,476.12l-40.54-39.256c-2.836-2.746-6.592-4.225-10.436-4.225c-1.351,0-2.712,0.183-4.048,0.557l-55.446,15.542
			l-14.263-55.789c-1.357-5.312-5.505-9.459-10.817-10.817l-55.789-14.263l15.543-55.446c1.479-5.279-0.038-10.945-3.96-14.777
			L36.462,257.4l41.183-40.246c3.922-3.832,5.439-9.498,3.96-14.777l-15.543-55.446l55.79-14.263
			c5.312-1.358,9.459-5.506,10.816-10.817l14.263-55.789l55.446,15.542c5.279,1.479,10.945-0.04,14.776-3.959L257.4,36.461
			l40.246,41.184c3.832,3.921,9.502,5.44,14.776,3.959l55.446-15.542l14.264,55.789c1.357,5.312,5.505,9.459,10.816,10.817
			l55.789,14.263l-15.543,55.446c-1.439,5.137-0.043,10.651,3.668,14.483l39.257,40.54L436.863,297.94z"/>
	</g>
</g>
<g>
	<g>
		<path d="M318.15,271.65c-24.813,0-45,20.187-45,45s20.187,45,45,45s45-20.187,45-45S342.964,271.65,318.15,271.65z M318.15,331.65
			c-8.271,0-15-6.729-15-15s6.729-15,15-15s15,6.729,15,15S326.422,331.65,318.15,331.65z"/>
	</g>
</g>
<g>
	<g>
		<path d="M198.15,151.65c-24.813,0-45,20.187-45,45c0,24.813,20.187,45,45,45c24.813,0,45-20.187,45-45
			C243.15,171.837,222.963,151.65,198.15,151.65z M198.15,211.65c-8.271,0-15-6.729-15-15c0-8.271,6.729-15,15-15s15,6.729,15,15
			S206.421,211.65,198.15,211.65z"/>
	</g>
</g>
<g>
	<g>
		<path d="M326.471,154.169c-6.893-4.594-16.206-2.732-20.801,4.161l-120,180c-4.596,6.893-2.733,16.206,4.16,20.801
			c6.897,4.597,16.209,2.729,20.801-4.161l120-180C335.227,168.078,333.364,158.765,326.471,154.169z"/>
	</g>
</g>
<g>
</g>
<g>
</g>
<g>
</g>
<g>
</g>
<g>
</g>
<g>
</g>
<g>
</g>
<g>
</g>
<g>
</g>
<g>
</g>
<g>
</g>
<g>
</g>
<g>
</g>
<g>
</g>
<g>
</g>
</svg>
